# xmcd
#
# Track frame offsets:
#	150
#	9715
#	22268
#	35262
#	47873
#	77649
#	90958
#	102542
#	114007
#	125490
#	136670
#	152388
#	163208
#
# Disc length: 2629 seconds
#
# Revision: 0
# Processed by: cddbd v1.4PL0 Copyright (c) Steve Scherf et al.
# Submitted via: dBpowerAMP V4.0
#
DISCID=970a430d
DTITLE=Charlie Pride - The Country Collection
DYEAR=2001
DGENRE=
TTITLE0=Kiss An Angel Good Morning
TTITLE1=Crystal Chandeliers
TTITLE2=Kaw-Liga
TTITLE3=Help Me Make Throught the Night
TTITLE4=Medly:  Does My Ring Hurt Your Finger
TTITLE5=(I'm So Afraid Of) Losing You Again
TTITLE6=Shutters and Boards
TTITLE7=The Happiness of Having You
TTITLE8=My Eyes Can Only See As Far As You
TTITLE9=Louisana Man
TTITLE10=Let Me Live In the Light of His Love
TTITLE11=Mississippi Cotton Pickin' Delta Town
TTITLE12=Medley: There Goes My Everything
EXTD=
EXTT0=
EXTT1=
EXTT2=
EXTT3=
EXTT4=
EXTT5=
EXTT6=
EXTT7=
EXTT8=
EXTT9=
EXTT10=
EXTT11=
EXTT12=
PLAYORDER=
